<svg width="18" height="18" viewBox="0 0 18 18" fill="none" xmlns="http://www.w3.org/2000/svg">
<path d="M7.83329 12.8333L13.7083 6.95833L12.5416 5.79167L7.83329 10.5L5.45829 8.125L4.29163 9.29167L7.83329 12.8333ZM8.99996 17.3333C7.84718 17.3333 6.76385 17.1144 5.74996 16.6767C4.73607 16.2394 3.85413 15.6458 3.10413 14.8958C2.35413 14.1458 1.76051 13.2639 1.32329 12.25C0.885515 11.2361 0.666626 10.1528 0.666626 9C0.666626 7.84722 0.885515 6.76389 1.32329 5.75C1.76051 4.73611 2.35413 3.85417 3.10413 3.10417C3.85413 2.35417 4.73607 1.76028 5.74996 1.3225C6.76385 0.885279 7.84718 0.666668 8.99996 0.666668C10.1527 0.666668 11.2361 0.885279 12.25 1.3225C13.2638 1.76028 14.1458 2.35417 14.8958 3.10417C15.6458 3.85417 16.2394 4.73611 16.6766 5.75C17.1144 6.76389 17.3333 7.84722 17.3333 9C17.3333 10.1528 17.1144 11.2361 16.6766 12.25C16.2394 13.2639 15.6458 14.1458 14.8958 14.8958C14.1458 15.6458 13.2638 16.2394 12.25 16.6767C11.2361 17.1144 10.1527 17.3333 8.99996 17.3333Z" fill="#AB4DF7"/>
</svg>
